<?xml version="1.0" encoding="UTF-8" standalone="no"?>
<!-- Created with Inkscape (http://www.inkscape.org/) -->

<svg
   width="293.57495mm"
   height="293.57495mm"
   viewBox="0 0 293.57495 293.57495"
   version="1.1"
   id="svg5"
   inkscape:version="1.2.2 (b0a8486541, 2022-12-01)"
   sodipodi:docname="gridded_square.svg"
   xmlns:inkscape="http://www.inkscape.org/namespaces/inkscape"
   xmlns:sodipodi="http://sodipodi.sourceforge.net/DTD/sodipodi-0.dtd"
   xmlns="http://www.w3.org/2000/svg"
   xmlns:svg="http://www.w3.org/2000/svg">
  <sodipodi:namedview
     id="namedview7"
     pagecolor="#ffffff"
     bordercolor="#666666"
     borderopacity="1.0"
     inkscape:showpageshadow="2"
     inkscape:pageopacity="0.0"
     inkscape:pagecheckerboard="0"
     inkscape:deskcolor="#d1d1d1"
     inkscape:document-units="mm"
     showgrid="false"
     showguides="true"
     inkscape:zoom="0.32681856"
     inkscape:cx="403.89383"
     inkscape:cy="662.44708"
     inkscape:window-width="1947"
     inkscape:window-height="1247"
     inkscape:window-x="968"
     inkscape:window-y="76"
     inkscape:window-maximized="0"
     inkscape:current-layer="layer1" />
  <defs
     id="defs2" />
  <g
     inkscape:label="Layer 1"
     inkscape:groupmode="layer"
     id="layer1"
     transform="translate(-31.398502,-55.122928)">
    <rect
       style="fill:none;stroke:#000000;stroke-width:1.465;stroke-linejoin:bevel;stroke-dasharray:none"
       id="rect236"
       width="290.68793"
       height="290.68793"
       x="32.908161"
       y="56.632587" />
    <path
       d="M 31.530793,55.255219 V 348.69788 M 41.481046,55.255219 V 348.69788 M 51.431297,55.255219 V 348.69788 M 61.381551,55.255219 V 348.69788 M 71.331802,55.255219 V 348.69788 M 81.282055,55.255219 V 348.69788 M 91.232307,55.255219 V 348.69788 M 101.18256,55.255219 V 348.69788 M 111.13281,55.255219 V 348.69788 M 121.08306,55.255219 V 348.69788 M 131.03332,55.255219 V 348.69788 M 140.98357,55.255219 V 348.69788 M 150.93382,55.255219 V 348.69788 M 160.88408,55.255219 V 348.69788 M 170.83432,55.255219 V 348.69788 M 180.78458,55.255219 V 348.69788 M 190.73484,55.255219 V 348.69788 M 200.68508,55.255219 V 348.69788 M 210.63534,55.255219 V 348.69788 M 220.58559,55.255219 V 348.69788 M 230.53584,55.255219 V 348.69788 M 240.48609,55.255219 V 348.69788 M 250.43635,55.255219 V 348.69788 M 260.38659,55.255219 V 348.69788 M 270.33685,55.255219 V 348.69788 M 280.28711,55.255219 V 348.69788 M 290.23735,55.255219 V 348.69788 M 300.18761,55.255219 V 348.69788 M 310.13787,55.255219 V 348.69788 M 320.08811,55.255219 V 348.69788 M 31.530793,55.255219 H 324.97344 M 31.530793,65.205471 H 324.97344 M 31.530793,75.155724 H 324.97344 M 31.530793,85.105975 H 324.97344 M 31.530793,95.056229 H 324.97344 M 31.530793,105.00648 H 324.97344 M 31.530793,114.95673 H 324.97344 M 31.530793,124.90699 H 324.97344 M 31.530793,134.85724 H 324.97344 M 31.530793,144.8075 H 324.97344 M 31.530793,154.75774 H 324.97344 M 31.530793,164.708 H 324.97344 M 31.530793,174.65825 H 324.97344 M 31.530793,184.60849 H 324.97344 M 31.530793,194.55875 H 324.97344 M 31.530793,204.50901 H 324.97344 M 31.530793,214.45925 H 324.97344 M 31.530793,224.40951 H 324.97344 M 31.530793,234.35977 H 324.97344 M 31.530793,244.31001 H 324.97344 M 31.530793,254.26027 H 324.97344 M 31.530793,264.21053 H 324.97344 M 31.530793,274.16077 H 324.97344 M 31.530793,284.11103 H 324.97344 M 31.530793,294.06127 H 324.97344 M 31.530793,304.01153 H 324.97344 M 31.530793,313.96179 H 324.97344 M 31.530793,323.91203 H 324.97344 M 31.530793,333.86228 H 324.97344 M 31.530793,343.81254 H 324.97344"
       style="fill:none;stroke:#000000;stroke-width:0.264582px"
       id="path7544" />
  </g>
</svg>
